<svg xmlns="http://www.w3.org/2000/svg" width="136.539" height="24" viewBox="0 0 136.539 24">
  <g id="Group_55836" data-name="Group 55836" transform="translate(12149.053 -1124)">
    <path id="Path_7257" data-name="Path 7257" d="M91.8,11.4H78.455a1.188,1.188,0,0,0-1.184,1.184v.987a2.433,2.433,0,0,1-.987,1.855l-4.737,3.316-.039.039a2.286,2.286,0,0,0-.908,1.539.82.82,0,0,0,.908.75h.237l4.342-.632a1.019,1.019,0,0,1,1.184,1.026v3.711a1.188,1.188,0,0,0,1.184,1.184H91.8a1.163,1.163,0,0,0,1.184-1.184V12.584A1.188,1.188,0,0,0,91.8,11.4Z" transform="translate(-12191.784 1117.06)" fill="#ffdf1c"/>
    <g id="Group_55837" data-name="Group 55837" transform="translate(-12149.053 1124)">
      <path id="Path_7252" data-name="Path 7252" d="M340.282,2.9a1.309,1.309,0,0,1-.987-.395,1.339,1.339,0,0,1-.395-1.026,1.2,1.2,0,0,1,.395-.987,1.431,1.431,0,0,1,1.974,0,1.5,1.5,0,0,1,.395,1.026,1.253,1.253,0,0,1-.395.987A1.476,1.476,0,0,1,340.282,2.9Zm-.79-2.25a1.274,1.274,0,0,0-.316.829,1.1,1.1,0,0,0,.316.789.963.963,0,0,0,.79.316,1.174,1.174,0,0,0,.789-.316,1.173,1.173,0,0,0,.316-.789,1.274,1.274,0,0,0-.316-.829A.994.994,0,0,0,340.282.3,1.332,1.332,0,0,0,339.492.653Zm.592,1.105v.513h-.395V.692h.632c.395,0,.592.158.592.513a.77.77,0,0,1-.039.316.692.692,0,0,1-.158.2l.237.553h-.434l-.2-.513Zm0-.75v.434h.2c.158,0,.2-.079.2-.237a.209.209,0,0,0-.237-.237h-.158Z" transform="translate(-205.125 -0.1)" fill="#d9d9d9"/>
      <path id="Path_7253" data-name="Path 7253" d="M173.474,9.282A8.9,8.9,0,0,0,164.592.4H152.276q-3.671,0-4.974,1.184a4.169,4.169,0,0,0-1.105,2.25h0a11.643,11.643,0,0,0-.2,2.171V18.6c0,2.171.434,3.671,1.3,4.461s2.526,1.184,4.974,1.184H165.3a8.868,8.868,0,0,0,8.171-8.842h.039V9.242Zm-5.8,5.684a4.591,4.591,0,0,1-4.579,4.618H153.066a1.188,1.188,0,0,1-1.184-1.184V6.282A1.188,1.188,0,0,1,153.066,5.1h10.105a4.574,4.574,0,0,1,4.5,4.618Z" transform="translate(-88.368 -0.282)" fill="#d9d9d9"/>
      <path id="Path_7254" data-name="Path 7254" d="M27.2,3.734h0a3.793,3.793,0,0,0-1.105-2.25Q24.789.3,21.118.3H6.2C3.75.3,2.132.695,1.263,1.484.434,2.234,0,3.734,0,5.905V18.5c0,2.171.434,3.671,1.3,4.461S3.789,24.142,6.2,24.142H21.118q3.671,0,4.974-1.184c.868-.789,1.3-2.289,1.3-4.461V13.011c-.039.039-.118.079-.158.118l-.039.039-4.7,3.276a2.456,2.456,0,0,0-.908,1.461,1.481,1.481,0,0,0-.039.395v.987c0,.355-.553.276-1.184.276H6.987A1.163,1.163,0,0,1,5.8,18.379V5.826A1.163,1.163,0,0,1,6.987,4.642H20.329a1.188,1.188,0,0,1,1.184,1.184V8.668c0,.118.039.237.039.316a.972.972,0,0,0,1.105.671L27,9.024h.355V5.905A9.189,9.189,0,0,0,27.2,3.734Z" transform="translate(0 -0.221)" fill="#d9d9d9"/>
      <path id="Path_7255" data-name="Path 7255" d="M303.905,8.213A7.848,7.848,0,0,0,296.247.2H285.668q-3.2,0-4.263,1.066a3.7,3.7,0,0,0-.947,2.053h0a9.75,9.75,0,0,0-.158,1.974V24.161h5.605V18.121a7.54,7.54,0,0,1,.079-.789,1.486,1.486,0,0,1,1.342-1.026c.276,0,1.026.158,2.25,1.382h0l6.671,6.395h7.5l-8.132-7.816H296.8a7.835,7.835,0,0,0,7.105-7.974h.04V8.134ZM286.1,6.042a.927.927,0,0,1,.908-.947h7.658a3.554,3.554,0,0,1-.039,7.105h-7.618a.927.927,0,0,1-.908-.947V6.042Z" transform="translate(-169.656 -0.161)" fill="#d9d9d9"/>
      <path id="Path_7256" data-name="Path 7256" d="M226.405,5.055h15.513v-1.5h0C241.918.239,238.247.2,238.247.2H226.484L225.5.239c-2.447,0-4.105.395-4.934,1.184S219.3,3.713,219.3,5.884V18.476c0,2.171.434,3.671,1.263,4.461a4.24,4.24,0,0,0,1.263.711,11.542,11.542,0,0,0,3.632.434h16.421V19.345H226.405a1.232,1.232,0,0,1-1.263-1.184V16.542h16.7v-4.5h-16.7v-5.8A1.314,1.314,0,0,1,226.405,5.055Z" transform="translate(-132.735 -0.161)" fill="#d9d9d9"/>
      <path id="Path_7258" data-name="Path 7258" d="M94.1.4h-15c-2.447,0-4.105.395-4.934,1.184S72.9,3.874,72.9,6.045v6.079l.039-.039,4.737-3.276a2.5,2.5,0,0,0,.987-1.855V5.966a1.188,1.188,0,0,1,1.184-1.184H93.189a1.163,1.163,0,0,1,1.184,1.184V18.518A1.163,1.163,0,0,1,93.189,19.7H79.847a1.188,1.188,0,0,1-1.184-1.184V14.808a1,1,0,0,0-1.184-1.026l-4.342.632H72.9v4.224a8.587,8.587,0,0,0,.039,1.026h0q.059.592.118,1.066a4.788,4.788,0,0,0,.434,1.184,4.5,4.5,0,0,0,2.132,1.974,4.41,4.41,0,0,0,1.895.395H94.058c2.447,0,4.066-.395,4.934-1.184s1.263-2.289,1.263-4.461V6.045c0-2.171-.434-3.632-1.263-4.461C98.2.795,96.545.4,94.1.4Z" transform="translate(-44.124 -0.282)" fill="#d9d9d9"/>
      <path id="Path_7259" data-name="Path 7259" d="M78.8,19.705,84.6,15.6l-5.408,2.329" transform="translate(-47.694 -9.481)" fill="#d9d9d9"/>
    </g>
  </g>
</svg>
